<?xml version="1.0" encoding="utf-8"?>
<!-- Generator: Adobe Illustrator 17.0.0, SVG Export Plug-In . SVG Version: 6.00 Build 0)  -->
<!DOCTYPE svg PUBLIC "-//W3C//DTD SVG 1.1//EN" "http://www.w3.org/Graphics/SVG/1.1/DTD/svg11.dtd">
<svg version="1.1" id="图层_1" xmlns:sketch="http://www.bohemiancoding.com/sketch/ns"
	 xmlns="http://www.w3.org/2000/svg" xmlns:xlink="http://www.w3.org/1999/xlink" x="0px" y="0px" width="1024px" height="1024px"
	 viewBox="0 0 1024 1024" enable-background="new 0 0 1024 1024" xml:space="preserve">
<title>Artboard 1</title>
<desc>Created with Sketch.</desc>
<g id="Page-1" sketch:type="MSPage">
	<g>
		<path fill="#1992F5" d="M799,0H225C100.736,0,0,100.736,0,225v574c0,124.264,100.736,225,225,225h574
			c124.264,0,225-100.736,225-225V225C1024,100.736,923.264,0,799,0z M406.133,597.89c19.388,19.439,65.308,73.48,82.142,93.304
			c20.331,29.094,2.353,90.254,2.353,90.254s-14.571-16.494-26.224-32.056c-25.271-32.999-56.361-70.874-93.236-113.627
			c-27.977,107.429-79.023,153.812-79.023,153.812c-12.632,17.914-97.758,36.521-113.276,21.003
			c95.15-73.792,148.463-166.389,158.201-277.103H190.522c0,0,8.488-53.001,34.562-53.001h118.708l3.502-69.062
			c1.909-38.825,1.121-68.588,1.121-91.898h-67.568c-5.831,17.487-6.722,17.888-11.413,30.938
			c-25.479,46.721-68.736,47.911-81.829,49.309c38.841-77.679,60.653-153.704,68.179-173.498
			c18.222-47.941,71.676-47.941,71.676-47.941c-11.653,31.101-21.393,59.031-29.135,88.166h196.558
			c23.422-0.573,19.053,53.026,19.053,53.026H401.171c0,48.58-1.966,100.786-5.831,160.96h116.288
			c16.672,0,16.867,53.001,16.867,53.001H391.562c-1.947,29.132-7.783,59.597-17.479,90.633L406.133,597.89z M829.508,738.819
			c0,3.542-4.1,7.675-7.634,7.675c-15.185,0-47.137,0-47.137,0s-40.662,0.011-54.641,0.011c-13.987,0-93.77,54.613-93.77,54.613
			l-16.665-54.613c0,0-26.004-0.009-40.448-0.009c-4.054,0-7.629-4.131-7.629-7.693c0-57.333,0-415.175,0-472.614
			c0-4.641,3.591-7.705,7.677-7.705c41.479,0,233.129,0.015,252.597,0.015c5.105,0,7.65,4.082,7.65,7.658
			C829.508,293.99,829.508,679.208,829.508,738.819z"/>
		<path fill="#1992F5" d="M770.449,310.475c-24.149,0-125.577,0-149.836,0c-2.544,0-5.107,2.51-5.107,5.121
			c0,41.789,0,331.062,0,372.814c0,2.534,2.573,5.094,5.123,5.094c6.082,0,16.621-0.003,16.621-0.003l11.041,42.51l68.519-42.506
			c0,0,39.472,0,53.624,0c2.552,0,5.077-2.556,5.077-5.111c0-41.808,0-331.015,0-372.798
			C775.51,313.017,772.964,310.475,770.449,310.475z"/>
	</g>
	<path id="Oval-1" sketch:type="MSShapeGroup" display="none" fill="#FFFFFF" d="M512,837c179.493,0,325-145.507,325-325
		S691.493,187,512,187S187,332.507,187,512S332.507,837,512,837z M514,734c121.503,0,220-98.497,220-220s-98.497-220-220-220
		s-220,98.497-220,220S392.497,734,514,734z"/>
</g>
</svg>
